HIERARCHY
ROOT SpineBase
{
  OFFSET 0.000000 0.000000 0.000000
  CHANNELS 6 Xposition Yposition Zposition Zrotation Xrotation Yrotation
  JOINT SpineMid
  {
    OFFSET 0.000000 33.500464 0.000000
    CHANNELS 3 Zrotation Xrotation Yrotation
    JOINT SpineShoulder
    {
      OFFSET 0.002234 24.839394 -0.752114
      CHANNELS 3 Zrotation Xrotation Yrotation
      JOINT Neck
      {
        OFFSET -0.024170 8.191945 -0.606492
        CHANNELS 3 Zrotation Xrotation Yrotation
        JOINT Head
        {
          OFFSET 4.977910 10.965731 5.419179
          CHANNELS 3 Zrotation Xrotation Yrotation
          End Site
          {
            OFFSET 0 0 0
          }
        }
      }
      JOINT ShoulderLeft
      {
        OFFSET -7.602278 -4.777176 -14.717896
        CHANNELS 3 Zrotation Xrotation Yrotation
        JOINT ElbowLeft
        {
          OFFSET -2.253484 -26.484094 -8.112966
          CHANNELS 3 Zrotation Xrotation Yrotation
          JOINT WristLeft
          {
            OFFSET 5.770904 -21.701277 -0.166829
            CHANNELS 3 Zrotation Xrotation Yrotation
            JOINT HandLeft
            {
              OFFSET 0.994650 -6.851148 0.983879
              CHANNELS 3 Zrotation Xrotation Yrotation
              JOINT HandTipLeft
              {
                OFFSET 2.193753 -6.984070 0.876403
                CHANNELS 3 Zrotation Xrotation Yrotation
                End Site
                {
                  OFFSET 0 0 0
                }
              }
              JOINT ThumbLeft
              {
                OFFSET 3.686696 0.597536 -0.644733
                CHANNELS 3 Zrotation Xrotation Yrotation
                End Site
                {
                  OFFSET 0 0 0
                }
              }
            }
          }
        }
      }
      JOINT ShoulderRight
      {
        OFFSET -2.900680 3.335315 -11.806647
        CHANNELS 3 Zrotation Xrotation Yrotation
        JOINT ElbowRight
        {
          OFFSET -7.508334 -20.188242 -20.157060
          CHANNELS 3 Zrotation Xrotation Yrotation
          JOINT WristRight
          {
            OFFSET -10.708175 -18.936011 -3.008170
            CHANNELS 3 Zrotation Xrotation Yrotation
            JOINT HandRight
            {
              OFFSET 0.034375 -1.599669 2.644232
              CHANNELS 3 Zrotation Xrotation Yrotation
              JOINT HandTipRight
              {
                OFFSET 0.253383 -0.520654 -1.294161
                CHANNELS 3 Zrotation Xrotation Yrotation
                End Site
                {
                  OFFSET 0 0 0
                }
              }
              JOINT ThumbRight
              {
                OFFSET 0.263549 -0.272755 -3.250503
                CHANNELS 3 Zrotation Xrotation Yrotation
                End Site
                {
                  OFFSET 0 0 0
                }
              }
            }
          }
        }
      }
    }
  }
  JOINT HipLeft
  {
    OFFSET -2.737204 0.679995 -7.426525
    CHANNELS 3 Zrotation Xrotation Yrotation
    JOINT KneeLeft
    {
      OFFSET -9.991995 -33.325985 -6.693740
      CHANNELS 3 Zrotation Xrotation Yrotation
      JOINT AnkleLeft
      {
        OFFSET -7.069732 -35.785418 7.244088
        CHANNELS 3 Zrotation Xrotation Yrotation
        JOINT FootLeft
        {
          OFFSET 4.072817 -7.603267 0.219804
          CHANNELS 3 Zrotation Xrotation Yrotation
          End Site
          {
            OFFSET 0 0 0
          }
        }
      }
    }
  }
  JOINT HipRight
  {
    OFFSET 2.449969 0.786522 -0.648445
    CHANNELS 3 Zrotation Xrotation Yrotation
    JOINT KneeRight
    {
      OFFSET -1.767661 -37.137963 1.465414
      CHANNELS 3 Zrotation Xrotation Yrotation
      JOINT AnkleRight
      {
        OFFSET -11.358390 -31.998848 1.739894
        CHANNELS 3 Zrotation Xrotation Yrotation
        JOINT FootRight
        {
          OFFSET 2.013419 -8.690715 -4.654555
          CHANNELS 3 Zrotation Xrotation Yrotation
          End Site
          {
            OFFSET 0 0 0
          }
        }
      }
    }
  }
}
MOTION
Frames: 9
Frame Time: 0.033333
30.245981 75.187653 369.928298 -1.506835 0.546975 -106.622001 -0.334411 -0.815073 106.564324 -0.258571 0.739460 -0.096337 9.053529 2.159112 -4.921702 0.000000 0.000000 0.000000 1.033695 4.585425 0.132969 36.659434 -25.225221 4.550213 25.938897 -12.826483 11.337604 -40.044073 21.841358 4.688326 0.000000 0.000000 0.000000 0.000000 0.000000 0.000000 2.456055 -1.832609 0.215473 -0.000000 0.000000 0.000000 -5.661046 17.055445 -10.814154 3.424227 -16.018952 25.172010 0.000000 0.000000 0.000000 0.000000 0.000000 0.000000 -3.058207 -12.176793 106.717928 11.015456 -1.863441 -1.007745 -13.772193 18.757686 17.002466 0.000000 0.000000 0.000000 3.404187 16.297551 106.982693 11.775908 -1.582681 3.529674 -4.671838 1.825294 -17.194708 0.000000 0.000000 0.000000
30.485018 74.892720 369.483127 -2.546133 2.157855 -109.906430 -0.499978 -1.043427 109.850933 -0.174773 0.836150 -0.127461 10.297107 1.016977 -5.022346 0.000000 0.000000 0.000000 0.323036 4.824485 0.627944 40.375838 -27.455717 6.259162 30.772621 -10.606750 11.085451 -47.150157 20.039258 5.613458 0.000000 0.000000 0.000000 0.000000 0.000000 0.000000 4.858989 -5.647253 -0.136109 -0.671480 2.824912 -0.050437 -1.616047 8.252892 -0.711559 -4.259291 -19.063050 11.393927 0.000000 0.000000 0.000000 0.000000 0.000000 0.000000 -0.582866 -10.240463 110.345590 9.828842 -0.854157 -1.516591 -13.305804 18.587417 17.392854 0.000000 0.000000 0.000000 5.046459 20.323354 110.168758 11.143693 -0.031785 3.092931 -5.921859 0.018694 -17.677102 0.000000 0.000000 0.000000
31.273975 74.735122 369.051602 -3.415902 4.044131 -104.776349 -0.633838 -0.854898 104.769543 -0.098477 0.849031 -0.142339 10.560253 0.357549 -5.088289 0.000000 0.000000 0.000000 -0.652866 4.606200 1.026243 43.331964 -28.450062 7.560863 36.381503 -8.469455 10.704334 -50.702018 16.769047 4.697826 0.000000 0.000000 0.000000 0.000000 0.000000 0.000000 6.707188 -9.200889 -0.336683 -1.200704 5.499572 -0.210690 0.685880 2.729868 5.133713 -12.983885 -32.747199 5.247289 0.000000 0.000000 0.000000 0.000000 0.000000 0.000000 1.340297 -8.320254 105.602628 8.698321 0.791222 -2.256506 -12.794312 18.341935 17.832322 0.000000 0.000000 0.000000 10.148615 21.698412 104.291367 11.549574 1.138730 2.700167 -3.942766 -5.484746 -20.327825 0.000000 0.000000 0.000000
32.648744 74.869830 369.130343 -4.052140 5.773867 -98.753899 -0.712511 -0.555193 98.824112 -0.016900 0.762616 -0.147182 10.726270 -0.459258 -5.113780 0.000000 0.000000 0.000000 -1.163162 4.037414 1.171043 46.619863 -28.564302 8.926532 34.435432 -7.668883 10.784658 -52.360192 16.797597 4.917625 0.000000 0.000000 0.000000 0.000000 0.000000 0.000000 8.299481 -12.528552 -0.487188 -1.768872 8.291834 -0.402282 1.143174 -0.213676 7.721923 -18.837010 -42.276952 5.290548 0.000000 0.000000 0.000000 0.000000 0.000000 0.000000 2.542459 -7.517711 99.710467 7.607666 1.763256 -2.777596 -12.578265 17.939123 18.399882 0.000000 0.000000 0.000000 15.006246 20.729476 97.653959 11.714478 1.783681 2.439947 -2.765064 -7.003979 -20.952288 0.000000 0.000000 0.000000
34.291663 74.712924 369.513757 -4.534456 7.373523 -87.951236 -0.690993 -0.250705 88.105331 -0.028645 0.674998 -0.160172 10.979273 -1.233418 -5.128368 0.000000 0.000000 0.000000 -0.589620 3.007864 1.056920 48.795605 -27.458551 9.884555 28.059336 -8.413743 11.494532 -46.510392 18.157246 3.869545 0.000000 0.000000 0.000000 0.000000 0.000000 0.000000 9.794020 -15.501903 -0.513100 -2.276554 10.873071 -0.634183 0.324438 -0.734461 8.223623 -21.108165 -49.728374 7.869480 0.000000 0.000000 0.000000 0.000000 0.000000 0.000000 2.555674 -7.747797 88.860929 6.675380 2.184995 -3.151029 -12.397807 17.595923 19.077844 0.000000 0.000000 0.000000 20.217067 16.597249 86.725057 12.047206 1.874333 2.360960 0.723190 -4.199122 -21.832986 0.000000 0.000000 0.000000
36.387932 74.959732 370.426469 -4.793399 8.670066 -74.630223 -0.421790 0.040309 74.858295 0.033371 0.432957 -0.160959 10.960213 -1.623063 -5.201733 0.000000 0.000000 0.000000 0.268925 2.434677 0.798167 50.625432 -26.440870 10.878494 24.274399 -9.451740 12.400042 -47.298776 18.831038 4.645141 0.000000 0.000000 0.000000 0.000000 0.000000 0.000000 10.705783 -17.547002 -0.547433 -2.673658 12.951000 -0.858674 -1.164214 -0.230442 7.304414 -20.136616 -55.483306 12.806351 0.000000 0.000000 0.000000 0.000000 0.000000 0.000000 1.631535 -8.466596 75.394890 5.736719 2.622411 -3.504449 -12.694579 16.979040 19.770288 0.000000 0.000000 0.000000 22.406867 9.670730 74.359374 13.035957 0.675268 2.667848 5.262586 2.295626 -22.549087 0.000000 0.000000 0.000000
38.593565 75.068738 371.595507 -4.961785 9.690952 -63.875658 -0.281120 0.159674 64.162793 -0.007358 0.357782 -0.170655 10.176780 -1.585813 -5.125785 0.000000 0.000000 0.000000 1.873802 1.501044 0.456074 51.202527 -24.841328 11.422373 21.253123 -13.559318 14.608510 -42.186297 19.296964 4.044778 0.000000 0.000000 0.000000 0.000000 0.000000 0.000000 11.393766 -19.146128 -0.453469 -2.891105 14.242843 -1.043095 -3.410382 2.293594 4.624507 -15.334006 -62.233090 20.751531 0.000000 0.000000 0.000000 0.000000 0.000000 0.000000 -0.095530 -8.964021 64.282938 4.994471 2.462033 -3.707523 -13.127522 16.420813 20.553459 0.000000 0.000000 0.000000 22.256716 3.538978 64.635938 14.127545 -0.446364 2.943157 10.482580 8.696974 -23.975996 0.000000 0.000000 0.000000
40.799273 75.119181 373.047098 -5.108537 10.380389 -55.861749 -0.019548 0.297096 56.208023 0.098340 0.147756 -0.157904 8.098750 -0.439993 -5.050862 0.000000 0.000000 0.000000 3.365194 0.731394 0.092464 51.543020 -22.643826 11.577686 15.495879 -15.802824 15.439477 -33.712566 17.789083 1.624424 0.000000 0.000000 0.000000 0.000000 0.000000 0.000000 11.260707 -19.583760 -0.412788 -2.872376 14.473263 -1.144033 -6.387172 7.475436 -0.317960 -1.169523 -69.832692 37.628747 0.000000 0.000000 0.000000 0.000000 0.000000 0.000000 -2.308017 -8.878204 55.782097 4.510751 1.754860 -3.798497 -13.640915 16.171610 21.528438 0.000000 0.000000 0.000000 20.262052 -0.885239 57.215392 15.358316 -1.910435 3.355178 14.583236 16.117851 -24.992830 0.000000 0.000000 0.000000
42.514087 74.948269 374.254145 -5.444551 11.062833 -51.314578 -0.073433 0.232887 51.704548 -0.107539 0.397218 -0.196662 8.234613 -1.076747 -4.790424 0.000000 0.000000 0.000000 5.939163 -0.658570 -0.122782 51.470180 -21.303689 11.818802 9.721285 -14.760755 14.658002 -27.838077 16.094416 -0.178258 0.000000 0.000000 0.000000 0.000000 0.000000 0.000000 11.388410 -19.756889 -0.054375 -2.559486 13.346438 -1.129152 -10.345284 17.914430 -9.527091 49.376707 -75.180952 89.623184 0.000000 0.000000 0.000000 0.000000 0.000000 0.000000 -3.567552 -8.430599 50.895699 4.116905 1.213078 -3.865193 -18.276419 13.464013 20.854890 0.000000 0.000000 0.000000 18.694868 -3.076617 52.855917 15.714162 -2.956722 3.610265 17.316391 23.196640 -25.252391 0.000000 0.000000 0.000000
